# xmcd
#
# Track frame offsets:
#	150
#	11700
#	25049
#	37189
#	50988
#	60888
#	76635
#	88484
#	103582
#	118844
#	130762
#	144462
#	156959
#
# Disc length: 2246 seconds
# Revision: 0
# Processed by: cddbd v1.5.2PL0 Copyright (c) Steve Scherf et al.
# Submitted via: dBpowerAMP V12.0
#
DISCID=ac08c40d
DTITLE=The Bartley Brothers - Hit the Road
DYEAR=2010
DGENRE=Bluegrass
TTITLE0=Loneliness Moved In
TTITLE1=Cold Dark Ground
TTITLE2=Long Hard Life
TTITLE3=God’s Family Tree
TTITLE4=Hit the Road
TTITLE5=There At the Barroom
TTITLE6=Just Call On Him
TTITLE7=Little Girl
TTITLE8=She’s Gone
TTITLE9=Travelin’ Preacher
TTITLE10=Darlin’ Say You’ll Be Around
TTITLE11=With Him Be Free
TTITLE12=Southbound
EXTD=
EXTT0=
EXTT1=
EXTT2=
EXTT3=
EXTT4=
EXTT5=
EXTT6=
EXTT7=
EXTT8=
EXTT9=
EXTT10=
EXTT11=
EXTT12=
PLAYORDER=
